<mxfile host="Electron" agent="Mozilla/5.0 (Macintosh; Intel Mac OS X 10_15_7) AppleWebKit/537.36 (KHTML, like Gecko) draw.io/24.7.17 Chrome/128.0.6613.36 Electron/32.0.1 Safari/537.36" version="24.7.17">
  <diagram name="Seite-1" id="eeH44UxJBQufAZ-0RBA7">
    <mxGraphModel dx="928" dy="833" grid="1" gridSize="10" guides="1" tooltips="1" connect="1" arrows="1" fold="1" page="1" pageScale="1" pageWidth="827" pageHeight="1169" math="0" shadow="0">
      <root>
        <mxCell id="0" />
        <mxCell id="1" parent="0" />
        <mxCell id="49KIyzw93C-KBmtn4RAz-1" value="&lt;p style=&quot;margin:0px;margin-top:4px;text-align:center;&quot;&gt;&lt;b&gt;EncodedExpressionTree&lt;/b&gt;&lt;/p&gt;&lt;p style=&quot;margin:0px;margin-left:4px;&quot;&gt;&lt;br&gt;&lt;/p&gt;" style="verticalAlign=top;align=left;overflow=fill;html=1;whiteSpace=wrap;fillColor=#fff2cc;strokeColor=#d6b656;" vertex="1" parent="1">
          <mxGeometry x="550" y="190" width="180" height="80" as="geometry" />
        </mxCell>
        <mxCell id="49KIyzw93C-KBmtn4RAz-7" value="&lt;p style=&quot;margin:0px;margin-top:4px;text-align:center;&quot;&gt;&lt;b&gt;MemberArrayRegistry&lt;/b&gt;&lt;/p&gt;&lt;hr size=&quot;1&quot; style=&quot;border-style:solid;&quot;&gt;&lt;p style=&quot;margin:0px;margin-left:4px;&quot;&gt;&lt;span style=&quot;background-color: initial;&quot;&gt;+ registerMemberArray(int[] memberArray): int&lt;/span&gt;&lt;br&gt;&lt;/p&gt;&lt;p style=&quot;margin:0px;margin-left:4px;&quot;&gt;&lt;span style=&quot;background-color: initial;&quot;&gt;+ lookupMemberArray(int id) : int[]&lt;/span&gt;&lt;/p&gt;" style="verticalAlign=top;align=left;overflow=fill;html=1;whiteSpace=wrap;fillColor=#ffe6cc;strokeColor=#d79b00;" vertex="1" parent="1">
          <mxGeometry x="20" y="190" width="362" height="70" as="geometry" />
        </mxCell>
        <mxCell id="49KIyzw93C-KBmtn4RAz-8" value="&lt;p style=&quot;margin:0px;margin-top:4px;text-align:center;&quot;&gt;&lt;b&gt;ExpressionLogicHelper&lt;/b&gt;&lt;/p&gt;" style="verticalAlign=top;align=left;overflow=fill;html=1;whiteSpace=wrap;fillColor=#ffe6cc;strokeColor=#d79b00;" vertex="1" parent="1">
          <mxGeometry x="20" y="285" width="230" height="30" as="geometry" />
        </mxCell>
        <mxCell id="49KIyzw93C-KBmtn4RAz-9" value="&lt;p style=&quot;margin:0px;margin-top:4px;text-align:center;&quot;&gt;&lt;b&gt;CoreExpressionCodec&lt;/b&gt;&lt;/p&gt;&lt;hr size=&quot;1&quot; style=&quot;border-style:solid;&quot;&gt;&lt;p style=&quot;margin:0px;margin-left:4px;&quot;&gt;&lt;span style=&quot;background-color: initial;&quot;&gt;+ encode(CoreExpression): int&lt;/span&gt;&lt;br&gt;&lt;/p&gt;&lt;p style=&quot;margin:0px;margin-left:4px;&quot;&gt;&lt;span style=&quot;background-color: initial;&quot;&gt;+ decode(int id) : CoreExpression&lt;/span&gt;&lt;/p&gt;&lt;p style=&quot;margin:0px;margin-left:4px;&quot;&gt;&lt;span style=&quot;background-color: initial;&quot;&gt;+ encodeCombinedExpressionId(int id, NodeType nodeType): int&lt;/span&gt;&lt;/p&gt;&lt;p style=&quot;margin:0px;margin-left:4px;&quot;&gt;&lt;span style=&quot;background-color: initial;&quot;&gt;+ decodeCombinedExpressionId(int encodedExpression) : int&lt;/span&gt;&lt;/p&gt;" style="verticalAlign=top;align=left;overflow=fill;html=1;whiteSpace=wrap;fillColor=#ffe6cc;strokeColor=#d79b00;" vertex="1" parent="1">
          <mxGeometry x="20" y="350" width="360" height="100" as="geometry" />
        </mxCell>
        <mxCell id="49KIyzw93C-KBmtn4RAz-10" value="&lt;p style=&quot;margin:0px;margin-top:4px;text-align:center;&quot;&gt;&lt;b&gt;GrowingIntArray&lt;/b&gt;&lt;/p&gt;" style="verticalAlign=top;align=left;overflow=fill;html=1;whiteSpace=wrap;fillColor=#ffe6cc;strokeColor=#d79b00;" vertex="1" parent="1">
          <mxGeometry x="550" y="420" width="180" height="30" as="geometry" />
        </mxCell>
        <mxCell id="49KIyzw93C-KBmtn4RAz-12" value="&lt;p style=&quot;margin:0px;margin-top:4px;text-align:center;&quot;&gt;&lt;i&gt;&amp;lt;&amp;lt;record&amp;gt;&amp;gt;&lt;/i&gt;&lt;br&gt;&lt;b&gt;ExpressionTreeLevel&lt;/b&gt;&lt;/p&gt;&lt;p style=&quot;margin:0px;margin-left:4px;&quot;&gt;&lt;br&gt;&lt;/p&gt;" style="verticalAlign=top;align=left;overflow=fill;html=1;whiteSpace=wrap;fillColor=#ffe6cc;strokeColor=#d79b00;" vertex="1" parent="1">
          <mxGeometry x="550" y="313" width="180" height="40" as="geometry" />
        </mxCell>
        <mxCell id="49KIyzw93C-KBmtn4RAz-13" value="" style="endArrow=open;endFill=1;endSize=12;html=1;rounded=0;exitX=0.5;exitY=1;exitDx=0;exitDy=0;strokeWidth=2;" edge="1" parent="1" source="49KIyzw93C-KBmtn4RAz-12" target="49KIyzw93C-KBmtn4RAz-10">
          <mxGeometry width="160" relative="1" as="geometry">
            <mxPoint x="370" y="470" as="sourcePoint" />
            <mxPoint x="530" y="470" as="targetPoint" />
          </mxGeometry>
        </mxCell>
        <mxCell id="49KIyzw93C-KBmtn4RAz-15" value="members" style="edgeLabel;html=1;align=center;verticalAlign=middle;resizable=0;points=[];" vertex="1" connectable="0" parent="49KIyzw93C-KBmtn4RAz-13">
          <mxGeometry x="-0.3293" y="1" relative="1" as="geometry">
            <mxPoint x="28" y="-14" as="offset" />
          </mxGeometry>
        </mxCell>
        <mxCell id="49KIyzw93C-KBmtn4RAz-17" value="" style="endArrow=open;endFill=1;endSize=12;html=1;rounded=0;exitX=0.5;exitY=1;exitDx=0;exitDy=0;strokeWidth=2;entryX=0.5;entryY=0;entryDx=0;entryDy=0;" edge="1" parent="1" source="49KIyzw93C-KBmtn4RAz-1" target="49KIyzw93C-KBmtn4RAz-12">
          <mxGeometry width="160" relative="1" as="geometry">
            <mxPoint x="569.66" y="290" as="sourcePoint" />
            <mxPoint x="569.66" y="330" as="targetPoint" />
          </mxGeometry>
        </mxCell>
        <mxCell id="49KIyzw93C-KBmtn4RAz-18" value="rootLevel" style="edgeLabel;html=1;align=center;verticalAlign=middle;resizable=0;points=[];" vertex="1" connectable="0" parent="49KIyzw93C-KBmtn4RAz-17">
          <mxGeometry x="-0.3293" y="1" relative="1" as="geometry">
            <mxPoint x="28" y="-5" as="offset" />
          </mxGeometry>
        </mxCell>
        <mxCell id="49KIyzw93C-KBmtn4RAz-19" value="" style="endArrow=open;endFill=1;endSize=12;html=1;rounded=0;exitX=0;exitY=0.25;exitDx=0;exitDy=0;strokeWidth=2;entryX=1;entryY=0.5;entryDx=0;entryDy=0;" edge="1" parent="1" source="49KIyzw93C-KBmtn4RAz-1" target="49KIyzw93C-KBmtn4RAz-7">
          <mxGeometry width="160" relative="1" as="geometry">
            <mxPoint x="640" y="340" as="sourcePoint" />
            <mxPoint x="640" y="410" as="targetPoint" />
            <Array as="points">
              <mxPoint x="440" y="210" />
              <mxPoint x="440" y="225" />
            </Array>
          </mxGeometry>
        </mxCell>
        <mxCell id="49KIyzw93C-KBmtn4RAz-20" value="memberArrayRegistry" style="edgeLabel;html=1;align=center;verticalAlign=middle;resizable=0;points=[];" vertex="1" connectable="0" parent="49KIyzw93C-KBmtn4RAz-19">
          <mxGeometry x="-0.3293" y="1" relative="1" as="geometry">
            <mxPoint x="-1" y="-11" as="offset" />
          </mxGeometry>
        </mxCell>
        <mxCell id="49KIyzw93C-KBmtn4RAz-21" value="" style="endArrow=open;endFill=1;endSize=12;html=1;rounded=0;strokeWidth=2;entryX=1;entryY=0.5;entryDx=0;entryDy=0;exitX=0;exitY=0.5;exitDx=0;exitDy=0;" edge="1" parent="1" source="49KIyzw93C-KBmtn4RAz-1" target="49KIyzw93C-KBmtn4RAz-8">
          <mxGeometry width="160" relative="1" as="geometry">
            <mxPoint x="550" y="320" as="sourcePoint" />
            <mxPoint x="460" y="255" as="targetPoint" />
            <Array as="points">
              <mxPoint x="490" y="230" />
              <mxPoint x="490" y="300" />
            </Array>
          </mxGeometry>
        </mxCell>
        <mxCell id="49KIyzw93C-KBmtn4RAz-22" value="logicHelper" style="edgeLabel;html=1;align=center;verticalAlign=middle;resizable=0;points=[];" vertex="1" connectable="0" parent="49KIyzw93C-KBmtn4RAz-21">
          <mxGeometry x="-0.3293" y="1" relative="1" as="geometry">
            <mxPoint x="22" y="-75" as="offset" />
          </mxGeometry>
        </mxCell>
        <mxCell id="49KIyzw93C-KBmtn4RAz-24" value="" style="endArrow=open;endFill=1;endSize=12;html=1;rounded=0;exitX=0;exitY=0.75;exitDx=0;exitDy=0;strokeWidth=2;entryX=1;entryY=0.5;entryDx=0;entryDy=0;" edge="1" parent="1" source="49KIyzw93C-KBmtn4RAz-1" target="49KIyzw93C-KBmtn4RAz-9">
          <mxGeometry width="160" relative="1" as="geometry">
            <mxPoint x="538" y="615" as="sourcePoint" />
            <mxPoint x="370" y="555" as="targetPoint" />
            <Array as="points">
              <mxPoint x="510" y="250" />
              <mxPoint x="510" y="400" />
            </Array>
          </mxGeometry>
        </mxCell>
        <mxCell id="49KIyzw93C-KBmtn4RAz-25" value="codec" style="edgeLabel;html=1;align=center;verticalAlign=middle;resizable=0;points=[];" vertex="1" connectable="0" parent="49KIyzw93C-KBmtn4RAz-24">
          <mxGeometry x="-0.3293" y="1" relative="1" as="geometry">
            <mxPoint x="15" y="-76" as="offset" />
          </mxGeometry>
        </mxCell>
        <mxCell id="49KIyzw93C-KBmtn4RAz-26" value="&lt;p style=&quot;margin:0px;margin-top:4px;text-align:center;&quot;&gt;&lt;i&gt;&amp;lt;&amp;lt;enum&amp;gt;&amp;gt;&lt;/i&gt;&lt;br&gt;&lt;b&gt;NodeType&lt;/b&gt;&lt;/p&gt;&lt;hr size=&quot;1&quot; style=&quot;border-style:solid;&quot;&gt;&lt;p style=&quot;margin:0px;margin-left:4px;&quot;&gt;+ LEAF&lt;br&gt;&lt;/p&gt;&lt;p style=&quot;margin:0px;margin-left:4px;&quot;&gt;+ AND&lt;br&gt;+ OR&lt;/p&gt;" style="verticalAlign=top;align=left;overflow=fill;html=1;whiteSpace=wrap;" vertex="1" parent="1">
          <mxGeometry x="550" y="470" width="180" height="100" as="geometry" />
        </mxCell>
        <mxCell id="49KIyzw93C-KBmtn4RAz-27" value="&lt;span style=&quot;font-size: 10px;&quot;&gt;An &lt;b&gt;EncodedExpressionTree&lt;/b&gt; is a light-weight &lt;b&gt;binary representation&lt;/b&gt; of a CoreExpression. Every node is an integer value that either stands for an atom (leaf with no further members) or any combined expression. &lt;br&gt;The &lt;b&gt;CoreExpressionCodec&lt;/b&gt; is responsible for converting between both worlds. The &lt;b&gt;MemberArrayRegistry&lt;/b&gt; ensures that the same list of members exists only once and, identifiable by an integer-id. The &lt;b&gt;ExpressionLogicHelper&lt;/b&gt; supports a couple of operations to optimize the tree with predicate logic.&lt;/span&gt;" style="shape=note;whiteSpace=wrap;html=1;backgroundOutline=1;darkOpacity=0.05;size=13;labelBackgroundColor=none;fillColor=#FFFFCC;gradientColor=none;align=left;" vertex="1" parent="1">
          <mxGeometry x="20" y="480" width="490" height="90" as="geometry" />
        </mxCell>
      </root>
    </mxGraphModel>
  </diagram>
</mxfile>
